<svg xmlns="http://www.w3.org/2000/svg" viewBox="0 0 1920 1080" width="1920" height="1080" role="img" aria-label="Metrale title slide" xmlns:c2pa="http://c2pa.org/manifest"><metadata><c2pa:manifest>AAAWgmp1bWIAAAAeanVtZGMycGEAEQAQgAAAqgA4m3EDYzJwYQAAABZcanVtYgAAAEdqdW1kYzJtYQARABCAAACqADibcQN1cm46YzJwYTo4Yzk0MTFiYS1iMThlLTRjMTEtYTA4Mi03ODkyYmQyNWEyOTIAAAADl2p1bWIAAAApanVtZGMyYXMAEQAQgAAAqgA4m3EDYzJwYS5hc3NlcnRpb25zAAAAALxqdW1iAAAARGp1bWRjYm9yABEAEIAAAKoAOJtxE2MycGEuaW5ncmVkaWVudC52MwAAAAAYYzJzaNxZs5RGOElYm83abCuKfY8AAABwY2JvcqNpZGM6Zm9ybWF0bWltYWdlL3N2Zyt4bWxqaW5zdGFuY2VJRHgseG1wOmlpZDo1MGUzOGIxOC1hNzFiLTQ0NmMtOTIyNy1mMTNmNDFmZjJiNjFscmVsYXRpb25zaGlwaHBhcmVudE9mAAAB4mp1bWIAAABBanVtZGNib3IAEQAQgAAAqgA4m3ETYzJwYS5hY3Rpb25zLnYyAAAAABhjMnNoCo/iNsUf+Ab1va41aPoW6AAAAZljYm9yomdhY3Rpb25zgqJmYWN0aW9ua2MycGEub3BlbmVkanBhcmFtZXRlcnOha2luZ3JlZGllbnRzgaJjdXJseC1zZWxmI2p1bWJmPWMycGEuYXNzZXJ0aW9ucy9jMnBhLmluZ3JlZGllbnQudjNkaGFzaFggi57yTVGTtj2qehnOmguZPLAJQEDF48QDI+5TxLfjhLykZmFjdGlvbngdY29tLmFudGhyb3BpYy5jbGF1ZGUucHJvdmlkZWRqcGFyYW1ldGVyc6F4H2NvbS5hbnRocm9waWMub3JpZ2luLWNvbmZpZGVuY2VndW5rbm93bmtkZXNjcmlwdGlvbnhmQ2xhdWRlIHByb3ZpZGVkIHRoaXMgZmlsZSBhdCB0aGUgcmVxdWVzdCBvZiBhIHVzZXIgYW5kIG1heSBoYXZlIGNyZWF0ZWQgb3IgbW9kaWZpZWQgdGhlIGZpbGUgY29udGVudHMubXNvZnR3YXJlQWdlbnShZG5hbWVmQ2xhdWRlcmFsbEFjdGlvbnNJbmNsdWRlZPUAAADIanVtYgAAAEBqdW1kY2JvcgARABCAAACqADibcRNjMnBhLmhhc2guZGF0YQAAAAAYYzJzaA3szFN2S2tbuZf38Ybsv7wAAACAY2JvcqVjYWxnZnNoYTI1NmNwYWRNAAAAAAAAAAAAAAAAAGRoYXNoWCBK3RCjFNNoY6vgYpOHbWdsfPNS+aLU4c1d4JtPhiVqRmRuYW1lbmp1bWJmIG1hbmlmZXN0amV4Y2x1c2lvbnOBomVzdGFydBjGZmxlbmd0aBkeBAAAAj5qdW1iAAAAJ2p1bWRjMmNsABEAEIAAAKoAOJtxA2MycGEuY2xhaW0udjIAAAACD2Nib3KlY2FsZ2ZzaGEyNTZpc2lnbmF0dXJleE1zZWxmI2p1bWJmPS9jMnBhL3VybjpjMnBhOjhjOTQxMWJhLWIxOGUtNGMxMS1hMDgyLTc4OTJiZDI1YTI5Mi9jMnBhLnNpZ25hdHVyZWppbnN0YW5jZUlEeCx4bXA6aWlkOmNjZWE0ZjNhLWU2N2ItNDUwMi05YjI2LTNlNjZiNzViNmMwMnJjcmVhdGVkX2Fzc2VydGlvbnODomN1cmx4LXNlbGYjanVtYmY9YzJwYS5hc3NlcnRpb25zL2MycGEuaW5ncmVkaWVudC52M2RoYXNoWCCLnvJNUZO2Pap6Gc6aC5k8sAlAQMXjxAMj7lPEt+OEvKJjdXJseCpzZWxmI2p1bWJmPWMycGEuYXNzZXJ0aW9ucy9jMnBhLmFjdGlvbnMudjJkaGFzaFggd87y0+9x4ym6JZsTihImMBQyJp0h9BuvMLM2Nc8w5NOiY3VybHgpc2VsZiNqdW1iZj1jMnBhLmFzc2VydGlvbnMvYzJwYS5oYXNoLmRhdGFkaGFzaFggnJw7iRjyOOqOCXzy31bXlOokb+OheiCVvHsGQNs9N2Z0Y2xhaW1fZ2VuZXJhdG9yX2luZm+jZG5hbWVvQW50aHJvcGljIEZpbGVzZ3ZlcnNpb25lMS4wLjBrc3BlY1ZlcnNpb25lMi40LjAAABA4anVtYgAAAChqdW1kYzJjcwARABCAAACqADibcQNjMnBhLnNpZ25hdHVyZQAAABAIY2JvctKEWQISogEmGCFZAgowggIGMIIBjaADAgECAhRA5aAK7sI50L64g/oGQgU9Z1UTADAKBggqhkjOPQQDAzBJMRcwFQYDVQQKEw5BbnRocm9waWMsIFBCQzEuMCwGA1UEAxMlQW50aHJvcGljIENvbnRlbnQgQ3JlZGVudGlhbHMgUm9vdCBDQTAeFw0yNjA4MDcxODQzNTZaFw0yODA4MDYxOTQzNTZaMEQxFzAVBgNVBAoTDkFudGhyb3BpYywgUEJDMSkwJwYDVQQDEyBBbnRocm9waWMgQ2xhdWRlIENvbnRlbnQgU2lnbmluZzBZMBMGByqGSM49AgEGCCqGSM49AwEHA0IABJh6CmvLUBgFFNU0vUKlOVtE6djd17L5SuwX0LemFisBM3dkd/3cyjxFA3Qo5S46fX0/ihY0VZ7mfb9KF703t5OjWDBWMA4GA1UdDwEB/wQEAwIHgDAVBgNVHSUEDjAMBgorBgEEAYPoXgIBMAwGA1UdEwEB/wQCMAAwHwYDVR0jBBgwFoAUzlHiBIFOZFsj+OPEz5o+nMHXXMIwCgYIKoZIzj0EAwMDZwAwZAIwMXMdFJ4BetLLVY7ORuE9noqbbAZOZn/aArXyTwFAZfKrPzxF2vPoJNf1+UCdg1XGAjBwX1zd9WGqYkqmL5SFqw1QySjr1zJfpJM9+1rdDwSPLMOPOjKuiXjoU/pUUeG9RwmhY3BhZFkNngAAAAAAAAAAAAAAAAAAAAAAAAAAAAAAAAAAAAAAAAAAAAAAAAAAAAAAAAAAAAAAAAAAAAAAAAAAAAAAAAAAAAAAAAAAAAAAAAAAAAAAAAAAAAAAAAAAAAAAAAAAAAAAAAAAAAAAAAAAAAAAAAAAAAAAAAAAAAAAAAAAAAAAAAAAAAAAAAAAAAAAAAAAAAAAAAAAAAAAAAAAAAAAAAAAAAAAAAAAAAAAAAAAAAAAAAAAAAAAAAAAAAAAAAAAAAAAAAAAAAAAAAAAAAAAAAAAAAAAAAAAAAAAAAAAAAAAAAAAAAAAAAAAAAAAAAAAAAAAAAAAAAAAAAAAAAAAAAAAAAAAAAAAAAAAAAAAAAAAAAAAAAAAAAAAAAAAAAAAAAAAAAAAAAAAAAAAAAAAAAAAAAAAAAAAAAAAAAAAAAAAAAAAAAAAAAAAAAAAAAAAAAAAAAAAAAAAAAAAAAAAAAAAAAAAAAAAAAAAAAAAAAAAAAAAAAAAAAAAAAAAAAAAAAAAAAAAAAAAAAAAAAAAAAAAAAAAAAAAAAAAAAAAAAAAAAAAAAAAAAAAAAAAAAAAAAAAAAAAAAAAAAAAAAAAAAAAAAAAAAAAAAAAAAAAAAAAAAAAAAAAAAAAAAAAAAAAAAAAAAAAAAAAAAAAAAAAAAAAAAAAAAAAAAAAAAAAAAAAAAAAAAAAAAAAAAAAAAAAAAAAAAAAAAAAAAAAAAAAAAAAAAAAAAAAAAAAAAAAAAAAAAAAAAAAAAAAAAAAAAAAAAAAAAAAAAAAAAAAAAAAAAAAAAAAAAAAAAAAAAAAAAAAAAAAAAAAAAAAAAAAAAAAAAAAAAAAAAAAAAAAAAAAAAAAAAAAAAAAAAAAAAAAAAAAAAAAAAAAAAAAAAAAAAAAAAAAAAAAAAAAAAAAAAAAAAAAAAAAAAAAAAAAAAAAAAAAAAAAAAAAAAAAAAAAAAAAAAAAAAAAAAAAAAAAAAAAAAAAAAAAAAAAAAAAAAAAAAAAAAAAAAAAAAAAAAAAAAAAAAAAAAAAAAAAAAAAAAAAAAAAAAAAAAAAAAAAAAAAAAAAAAAAAAAAAAAAAAAAAAAAAAAAAAAAAAAAAAAAAAAAAAAAAAAAAAAAAAAAAAAAAAAAAAAAAAAAAAAAAAAAAAAAAAAAAAAAAAAAAAAAAAAAAAAAAAAAAAAAAAAAAAAAAAAAAAAAAAAAAAAAAAAAAAAAAAAAAAAAAAAAAAAAAAAAAAAAAAAAAAAAAAAAAAAAAAAAAAAAAAAAAAAAAAAAAAAAAAAAAAAAAAAAAAAAAAAAAAAAAAAAAAAAAAAAAAAAAAAAAAAAAAAAAAAAAAAAAAAAAAAAAAAAAAAAAAAAAAAAAAAAAAAAAAAAAAAAAAAAAAAAAAAAAAAAAAAAAAAAAAAAAAAAAAAAAAAAAAAAAAAAAAAAAAAAAAAAAAAAAAAAAAAAAAAAAAAAAAAAAAAAAAAAAAAAAAAAAAAAAAAAAAAAAAAAAAAAAAAAAAAAAAAAAAAAAAAAAAAAAAAAAAAAAAAAAAAAAAAAAAAAAAAAAAAAAAAAAAAAAAAAAAAAAAAAAAAAAAAAAAAAAAAAAAAAAAAAAAAAAAAAAAAAAAAAAAAAAAAAAAAAAAAAAAAAAAAAAAAAAAAAAAAAAAAAAAAAAAAAAAAAAAAAAAAAAAAAAAAAAAAAAAAAAAAAAAAAAAAAAAAAAAAAAAAAAAAAAAAAAAAAAAAAAAAAAAAAAAAAAAAAAAAAAAAAAAAAAAAAAAAAAAAAAAAAAAAAAAAAAAAAAAAAAAAAAAAAAAAAAAAAAAAAAAAAAAAAAAAAAAAAAAAAAAAAAAAAAAAAAAAAAAAAAAAAAAAAAAAAAAAAAAAAAAAAAAAAAAAAAAAAAAAAAAAAAAAAAAAAAAAAAAAAAAAAAAAAAAAAAAAAAAAAAAAAAAAAAAAAAAAAAAAAAAAAAAAAAAAAAAAAAAAAAAAAAAAAAAAAAAAAAAAAAAAAAAAAAAAAAAAAAAAAAAAAAAAAAAAAAAAAAAAAAAAAAAAAAAAAAAAAAAAAAAAAAAAAAAAAAAAAAAAAAAAAAAAAAAAAAAAAAAAAAAAAAAAAAAAAAAAAAAAAAAAAAAAAAAAAAAAAAAAAAAAAAAAAAAAAAAAAAAAAAAAAAAAAAAAAAAAAAAAAAAAAAAAAAAAAAAAAAAAAAAAAAAAAAAAAAAAAAAAAAAAAAAAAAAAAAAAAAAAAAAAAAAAAAAAAAAAAAAAAAAAAAAAAAAAAAAAAAAAAAAAAAAAAAAAAAAAAAAAAAAAAAAAAAAAAAAAAAAAAAAAAAAAAAAAAAAAAAAAAAAAAAAAAAAAAAAAAAAAAAAAAAAAAAAAAAAAAAAAAAAAAAAAAAAAAAAAAAAAAAAAAAAAAAAAAAAAAAAAAAAAAAAAAAAAAAAAAAAAAAAAAAAAAAAAAAAAAAAAAAAAAAAAAAAAAAAAAAAAAAAAAAAAAAAAAAAAAAAAAAAAAAAAAAAAAAAAAAAAAAAAAAAAAAAAAAAAAAAAAAAAAAAAAAAAAAAAAAAAAAAAAAAAAAAAAAAAAAAAAAAAAAAAAAAAAAAAAAAAAAAAAAAAAAAAAAAAAAAAAAAAAAAAAAAAAAAAAAAAAAAAAAAAAAAAAAAAAAAAAAAAAAAAAAAAAAAAAAAAAAAAAAAAAAAAAAAAAAAAAAAAAAAAAAAAAAAAAAAAAAAAAAAAAAAAAAAAAAAAAAAAAAAAAAAAAAAAAAAAAAAAAAAAAAAAAAAAAAAAAAAAAAAAAAAAAAAAAAAAAAAAAAAAAAAAAAAAAAAAAAAAAAAAAAAAAAAAAAAAAAAAAAAAAAAAAAAAAAAAAAAAAAAAAAAAAAAAAAAAAAAAAAAAAAAAAAAAAAAAAAAAAAAAAAAAAAAAAAAAAAAAAAAAAAAAAAAAAAAAAAAAAAAAAAAAAAAAAAAAAAAAAAAAAAAAAAAAAAAAAAAAAAAAAAAAAAAAAAAAAAAAAAAAAAAAAAAAAAAAAAAAAAAAAAAAAAAAAAAAAAAAAAAAAAAAAAAAAAAAAAAAAAAAAAAAAAAAAAAAAAAAAAAAAAAAAAAAAAAAAAAAAAAAAAAAAAAAAAAAAAAAAAAAAAAAAAAAAAAAAAAAAAAAAAAAAAAAAAAAAAAAAAAAAAAAAAAAAAAAAAAAAAAAAAAAAAAAAAAAAAAAAAAAAAAAAAAAAAAAAAAAAAAAAAAAAAAAAAAAAAAAAAAAAAAAAAAAAAAAAAAAAAAAAAAAAAAAAAAAAAAAAAAAAAAAAAAAAAAAAAAAAAAAAAAAAAAAAAAAAAAAAAAAAAAAAAAAAAAAAAAAAAAAAAAAAAAAAAAAAAAAAAAAAAAAAAAAAAAAAAAAAAAAAAAAAAAAAAAAAAAAAAAAAAAAAAAAAAAAAAAAAAAAAAAAAAAAAAAAAAAAAAAAAAAAAAAAAAAAAAAAAAAAAAAAAAAAAAAAAAAAAAAAAAAAAAAAAAAAAAAAAAAAAAAAAAAAAAAAAAAAAAAAAAAAAAAAAAAAAAAAAAAAAAAAAAAAAAAAAAAAAAAAAAAAAAAAAAAAAAAAAAAAAAAAAAAAAAAAAAAAAAAAAAAAAAAAAAAAAAAAAAAAAAAAAAAAAAAAAAAAAAAAAAAAAAAAAAAAAAAAAAAAAAAAAAAAAAAAAAAAAAAAAAAAAAAAAAAAAAAAAAAAAAAAAAAAAAAAAAAAAAAAAAAAAAAAAAAAAAAAAAAAAAAAAAAAAAAAAAAAAAAAAAAAAAAAAAAAAAAAAAAAAAAAAAAAAAAAAAAAAAAAAAAAAAAAAAAAAAAAAAAAAAAAAAAAAAAAAAAAAAAAAAAAAAAAAAAAAAAAAAAAAAAAAAAAAAAAAAAAAAAAAAAAAAAAAAAAAAAAAAAAAAAAAAAAAAAAAAAAAAAAAAAAAAAAAAAAAAAAAAAAAAAAAAAAAAAAAAAAAAAAAAAAAAAAAAAAAAAAAAAAAAAAAAAAAAAAAAAAAAAAAAAAAAAAAAAAAAAAAAAAAAAAAAAAAAAAAAAAAAAAAAAAAAAAAAAAAAAAAAAAAAAAAAAAAAAAAAAAAAAAAAAAAAAAAAAAAAAAAAAAAAAAAAAAAAAAAAAAAAAAAAAAAAAAAAAAAAAAAAAAAAAAAAAAAAAAAAAAAAAAAAAAAAAAAAAAAAAAAAAAAAAAAAAAAAAAAAAAAAAAAAAAAAAAAAAAAAAAAAAAAAAAAAAAAAAAAAAAAAAAAAAAAAAAAAAAAAAAAAAAAAAAAAAAAAAAAAAAAAAAAAAAAAAAAAAAAAAAAAAAAAAAAAAAAAAAAAAAAAAAAAAAAAAAAAAAAAAAAAAAAAAAAAAAAAAAAAAAAAAAAAAAAAAAAAAAAAAAAAAAAAAAAAAAAAAAAAAAAAAAAAAAAAAAAAAAAAAAAAAAAAAAAAAAAAAAAAAAAAAAAAAAAAAAAAAAAAAAAAAAAAAAAAAAAAAAAAAAAAAAAAAAAAAAAAAAAAAAAAAAAAAAAAAAAAAAAAAAAAAAAAAAAAAAAAAAAAAAAAAAAAAAAAAAAAAAAAAAAAAAAAAAAAAAAAAAAAAAAAAAAAAAAAAAAAAAAAAAAAAAAAAAAAAAAAAAAAAAAAAAAAAAAAAAAAAAAAAAAAAAAAAAAAAAAAAAAAPZYQLBGe5SWR1+LuJhP/ihgl/Fwa8AkzZahFc3ZA8+pk3FTjXpA2RDsfhmx+/ExHjZltKe6hRYJeK/Z3N1xJyJl+pg=</c2pa:manifest></metadata>
  <defs>
    <linearGradient id="z7v" x1="0" y1="0" x2="0.25" y2="1"><stop offset="0" stop-color="#CDBFF1"></stop><stop offset="1" stop-color="#9F8DD8"></stop></linearGradient>
    <linearGradient id="z7c" x1="0" y1="0" x2="1" y2="0"><stop offset="0" stop-color="#6FD9EC"></stop><stop offset="1" stop-color="#5A96BD"></stop></linearGradient>
    <linearGradient id="z7g" x1="0.8" y1="0" x2="0.2" y2="1"><stop offset="0" stop-color="#E4C070"></stop><stop offset="1" stop-color="#AE8A3F"></stop></linearGradient>
    <linearGradient id="z7w" x1="0" y1="0" x2="0" y2="1"><stop offset="0" stop-color="#F7F7F9"></stop><stop offset="1" stop-color="#D9D9DE"></stop></linearGradient>
  </defs><rect width="1920" height="1080" fill="#0E1318"></rect>
  <g transform="translate(121.5421686746988 144.67469879518072) scale(0.19277)"><path d="M0 0L189 189L189 265L47 123L47 362L0 362Z" fill="url(#z7mw)"></path>
  <path d="M378 0L189 189L189 265L331 123L331 362L378 362Z" fill="url(#z7mv)"></path>
  <rect x="105" y="326" width="168" height="36" fill="url(#z7mc)"></rect>
  <path d="M464 -118L502 -118C506 -118 508 -116 508 -112C500 -92 468 -60 442 -44L438 -42L408 -42C404 -42 402 -44 402 -48C432 -60 460 -100 464 -118Z" fill="url(#z7mg)"></path></g>
  <g transform="translate(125.28083381586566 639.2356687898089) scale(0.44007)"><path d="M0 0L189 189L189 265L47 123L47 362L0 362Z" fill="url(#z7w)"></path>
  <path d="M378 0L189 189L189 265L331 123L331 362L378 362Z" fill="url(#z7v)"></path>
  <rect x="105" y="326" width="168" height="36" fill="url(#z7c)"></rect>
  <path d="M553.04 369.08L553.04 369.08Q520.75 369.08 494.19 352.47Q467.63 335.86 451.83 307.89Q436.04 279.93 436.04 246L436.04 246Q436.04 220.26 445.17 197.91Q454.29 175.57 470.32 158.60Q486.35 141.64 507.64 132.04Q528.94 122.45 553.04 122.45L553.04 122.45Q579.48 122.45 601.60 133.09Q623.71 143.74 639.50 162.70Q655.30 181.65 663.14 206.69Q670.98 231.73 668.87 260.27L668.87 260.27L477.93 260.27Q480.73 280.16 491.03 295.73Q501.33 311.29 517.36 320.41Q533.38 329.54 553.04 329.77L553.04 329.77Q574.10 329.77 591.18 318.89Q608.26 308.01 618.79 289.06L618.79 289.06L658.81 298.42Q644.77 329.54 616.45 349.31Q588.14 369.08 553.04 369.08ZM476.76 229.39L476.76 229.39L629.32 229.39Q627.45 209.73 616.69 193.47Q605.92 177.20 589.31 167.38Q572.70 157.55 553.04 157.55L553.04 157.55Q533.38 157.55 517.00 167.14Q500.62 176.74 489.98 193.00Q479.33 209.26 476.76 229.39ZM826.82 129L826.82 168.31L773.70 168.31L773.47 363L734.16 363L734.39 168.31L694.14 168.31L694.14 129L734.39 129L734.16 67L773.47 67L773.70 129L826.82 129ZM908.02 363L868.71 363L868.71 129L908.02 129L908.02 158.25Q920.42 141.87 939.37 132.16Q958.33 122.45 980.56 122.45L980.56 122.45Q994.13 122.45 1006.77 125.96L1006.77 125.96L990.85 165.27Q981.26 162.23 972.13 162.23L972.13 162.23Q954.58 162.23 939.96 170.77Q925.33 179.31 916.68 193.82Q908.02 208.33 908.02 226.11L908.02 226.11L908.02 363ZM1212.92 169.01L1211.52 129L1250.83 129L1250.83 363L1211.52 363L1209.88 323.45Q1198.88 343.81 1179.58 356.45Q1160.27 369.08 1133.59 369.08L1133.59 369.08Q1107.85 369.08 1085.39 359.37Q1062.93 349.66 1045.73 332.46Q1028.53 315.26 1018.93 292.80Q1009.34 270.34 1009.34 244.36L1009.34 244.36Q1009.34 219.32 1018.70 197.09Q1028.06 174.86 1044.79 158.13Q1061.52 141.40 1083.52 131.92Q1105.51 122.45 1130.79 122.45L1130.79 122.45Q1158.40 122.45 1179.22 135.43Q1200.05 148.42 1212.92 169.01L1212.92 169.01ZM1132.89 330.94L1132.89 330.94Q1156.06 330.94 1173.02 319.59Q1189.99 308.24 1199.23 288.82Q1208.47 269.40 1208.47 246L1208.47 246Q1208.47 222.13 1199.11 202.83Q1189.75 183.52 1172.79 172.17Q1155.82 160.82 1132.89 160.82L1132.89 160.82Q1109.73 160.82 1090.77 172.29Q1071.82 183.76 1060.70 203.06Q1049.59 222.37 1049.59 246L1049.59 246Q1049.59 269.63 1061.05 288.94Q1072.52 308.24 1091.47 319.59Q1110.43 330.94 1132.89 330.94ZM1339.51 363L1300.20 363L1300.20 45L1339.51 45L1339.51 363ZM1496.53 369.08L1496.53 369.08Q1464.24 369.08 1437.68 352.47Q1411.12 335.86 1395.32 307.89Q1379.53 279.93 1379.53 246L1379.53 246Q1379.53 220.26 1388.65 197.91Q1397.78 175.57 1413.81 158.60Q1429.84 141.64 1451.13 132.04Q1472.43 122.45 1496.53 122.45L1496.53 122.45Q1522.97 122.45 1545.08 133.09Q1567.20 143.74 1582.99 162.70Q1598.79 181.65 1606.63 206.69Q1614.46 231.73 1612.36 260.27L1612.36 260.27L1421.41 260.27Q1424.22 280.16 1434.52 295.73Q1444.81 311.29 1460.84 320.41Q1476.87 329.54 1496.53 329.77L1496.53 329.77Q1517.59 329.77 1534.67 318.89Q1551.75 308.01 1562.28 289.06L1562.28 289.06L1602.30 298.42Q1588.26 329.54 1559.94 349.31Q1531.63 369.08 1496.53 369.08ZM1420.24 229.39L1420.24 229.39L1572.81 229.39Q1570.94 209.73 1560.18 193.47Q1549.41 177.20 1532.80 167.38Q1516.18 157.55 1496.53 157.55L1496.53 157.55Q1476.87 157.55 1460.49 167.14Q1444.11 176.74 1433.47 193.00Q1422.82 209.26 1420.24 229.39Z" fill="url(#z7w)" stroke="url(#z7w)" stroke-width="3.6" stroke-linejoin="round"></path>
  <path d="M1659 284L1697 284C1701 284 1703 286 1703 290C1695 310 1663 342 1637 358L1633 360L1603 360C1599 360 1597 358 1597 354C1627 342 1655 302 1659 284Z" fill="url(#z7g)"></path>
  <g transform="translate(0 426.0) scale(0.55249)"><g transform="translate(0 0)"><path d="M0 362L189 0L189 101.51322751322752L53 362Z" fill="url(#z7w)"></path><path d="M378 362L189 0L189 101.51322751322752L325 362Z" fill="url(#z7v)"></path><rect x="122" y="236" width="134" height="36" fill="url(#z7c)"></rect><rect x="462" y="0" width="47" height="362" fill="url(#z7w)"></rect></g></g></g>
</svg>